HIERARCHY
ROOT Hips
{
	OFFSET	0.00	0.00	0.00
	CHANNELS 6 Xposition Yposition Zposition Zrotation Xrotation Yrotation
	JOINT LeftUpLeg
	{
		OFFSET	 0.126116	-0.014019	-0.065224
		CHANNELS 3 Zrotation Xrotation Yrotation
		JOINT LeftLeg
		{
			OFFSET	 0.000000	 0.000000	 0.569914
			CHANNELS 3 Zrotation Xrotation Yrotation
			JOINT LeftFoot
			{
				OFFSET	 0.000000	 0.000000	 0.544423
				CHANNELS 3 Zrotation Xrotation Yrotation
				JOINT LeftToeBase
				{
					OFFSET	 0.000000	 0.000000	 0.207117
					CHANNELS 3 Zrotation Xrotation Yrotation
					End Site
					{
						OFFSET	 0.000000	 0.000000	 0.207117
					}
				}
			}
		}
	}
	JOINT RightUpLeg
	{
		OFFSET	-0.124023	-0.008373	-0.065224
		CHANNELS 3 Zrotation Xrotation Yrotation
		JOINT RightLeg
		{
			OFFSET	 0.000000	 0.000000	 0.570047
			CHANNELS 3 Zrotation Xrotation Yrotation
			JOINT RightFoot
			{
				OFFSET	 0.000000	 0.000000	 0.544354
				CHANNELS 3 Zrotation Xrotation Yrotation
				JOINT RightToeBase
				{
					OFFSET	 0.000000	 0.000000	 0.207540
					CHANNELS 3 Zrotation Xrotation Yrotation
					End Site
					{
						OFFSET	 0.000000	 0.000000	 0.207540
					}
				}
			}
		}
	}
	JOINT Spine
	{
		OFFSET	 0.000184	-0.007763	 0.117403
		CHANNELS 3 Zrotation Xrotation Yrotation
		JOINT Spine1
		{
			OFFSET	 0.000000	 0.000000	 0.137269
			CHANNELS 3 Zrotation Xrotation Yrotation
			JOINT Spine2
			{
				OFFSET	 0.000000	 0.000000	 0.156879
				CHANNELS 3 Zrotation Xrotation Yrotation
				JOINT LeftShoulder
				{
					OFFSET	 0.080501	-0.002496	 0.160144
					CHANNELS 3 Zrotation Xrotation Yrotation
					JOINT LeftArm
					{
						OFFSET	 0.000000	 0.000000	 0.164363
						CHANNELS 3 Zrotation Xrotation Yrotation
						JOINT LeftForeArm
						{
							OFFSET	 0.000000	 0.000000	 0.364576
							CHANNELS 3 Zrotation Xrotation Yrotation
							JOINT LeftHand
							{
								OFFSET	 0.000000	 0.000000	 0.360812
								CHANNELS 3 Zrotation Xrotation Yrotation
								JOINT LeftHandIndex1
								{
									OFFSET	 0.000000	 0.000000	 0.086006
									CHANNELS 3 Zrotation Xrotation Yrotation
									JOINT LeftHandIndex2
									{
										OFFSET	 0.000000	 0.000000	 0.047236
										CHANNELS 3 Zrotation Xrotation Yrotation
										JOINT LeftHandIndex3
										{
											OFFSET	-0.004284	-0.000551	 0.038166
											CHANNELS 3 Zrotation Xrotation Yrotation
											End Site
											{
												OFFSET	-0.004284	-0.000551	 0.038166
											}
										}
									}
								}
							}
						}
					}
				}
				JOINT Neck
				{
					OFFSET	 0.000000	 0.000000	 0.176489
					CHANNELS 3 Zrotation Xrotation Yrotation
					JOINT Head
					{
						OFFSET	 0.000000	-0.001747	 0.077940
						CHANNELS 3 Zrotation Xrotation Yrotation
						End Site
						{
							OFFSET	 0.000000	-0.001747	 0.077940
						}
					}
				}
				JOINT RightShoulder
				{
					OFFSET	-0.080363	 0.000306	 0.159706
					CHANNELS 3 Zrotation Xrotation Yrotation
					JOINT RightArm
					{
						OFFSET	 0.000000	 0.000000	 0.164196
						CHANNELS 3 Zrotation Xrotation Yrotation
						JOINT RightForeArm
						{
							OFFSET	 0.000000	 0.000000	 0.365611
							CHANNELS 3 Zrotation Xrotation Yrotation
							JOINT RightHand
							{
								OFFSET	 0.000000	 0.000000	 0.360648
								CHANNELS 3 Zrotation Xrotation Yrotation
								JOINT RightHandIndex1
								{
									OFFSET	 0.000000	 0.000000	 0.069977
									CHANNELS 3 Zrotation Xrotation Yrotation
									JOINT RightHandIndex2
									{
										OFFSET	 0.000000	 0.000000	 0.052305
										CHANNELS 3 Zrotation Xrotation Yrotation
										JOINT RightHandIndex3
										{
											OFFSET	 0.009002	-0.000782	 0.042196
											CHANNELS 3 Zrotation Xrotation Yrotation
											End Site
											{
												OFFSET	 0.009002	-0.000782	 0.042196
											}
										}
									}
								}
							}
						}
					}
				}
			}
		}
	}
}
MOTION
Frames:    8
Frame Time: 0.03333334
-0.056834	-2.213348	 1.166677	 3.992502	-1.833795	-3.441496	 31.521900	-14.956500	-176.831900	 0.191359	-49.137600	-0.114423	 108.100400	 82.435870	-112.032300	-2.371558	 31.249070	-0.061661	-33.934840	-35.512640	-175.705300	 12.443240	-60.553130	 11.551770	 1.449447	 73.950850	 6.804229	 2.357749	 33.178400	 0.107375	-20.619080	 8.934100	 1.351472	 0.627528	 3.025467	 1.889291	-5.183134	-2.812189	-2.476394	-93.746960	 58.843740	 175.810400	 10.018760	 28.052040	-39.678430	 12.529290	-1.410817	-5.993298	-16.973760	-5.673856	-7.766001	-4.869405	 19.245710	-2.787624	-3.891331	 21.347220	 2.212712	-4.807802	 5.550908	 0.146654	-0.132250	-5.007742	 0.155358	-7.330732	 2.038597	 2.499975	 89.839680	 61.566640	-179.863200	-17.915800	 46.119830	 13.946480	-14.164730	-1.460189	 6.032936	 12.454270	 6.118042	-1.077897	 6.305780	 26.111700	-0.579576	 1.711995	 46.065380	-6.837861	 0.326677	 25.144860	 3.670658
-0.058872	-2.260354	 1.166436	 4.569635	-1.558840	-3.454380	 30.413420	-12.752630	-178.212200	 0.735070	-48.184250	 0.241378	 121.942400	 83.003250	-125.728200	-2.370522	 31.425150	-0.065641	-36.289870	-37.815060	-179.113100	 11.332080	-55.105470	 9.964457	-6.595883	 72.659740	 16.027460	 2.358332	 33.093810	 0.105402	-25.790820	 8.795568	 1.254927	 0.573110	 3.357689	 1.974160	-5.743912	-3.059465	-2.652567	-93.854130	 58.933650	 175.571700	 8.536894	 25.483420	-40.508200	 14.444570	-1.982264	-7.047765	-16.708090	-5.593644	-8.732404	-4.869251	 19.244370	-2.786484	-3.887355	 21.398200	 2.208672	-4.808259	 5.545542	 0.146964	-0.100611	-5.045629	 0.171547	-7.763692	 1.969321	 2.340472	 89.805440	 61.615850	-179.944500	-18.104470	 47.259230	 12.127130	-16.971040	-2.041868	 7.088605	 12.561800	 6.356283	-1.291743	 6.298884	 25.408770	-0.558246	 1.811247	 45.293890	-6.926818	 0.445380	 24.629930	 3.609470
-0.060571	-2.295833	 1.164373	 5.066745	-1.321411	-3.477770	 29.442160	-11.215050	-179.210800	 1.056411	-47.615950	 0.519794	 133.458900	 83.118890	-137.190800	-2.369644	 31.573880	-0.068991	-38.069420	-39.134620	 178.246400	 10.577140	-50.213570	 8.756880	-12.083660	 71.712320	 22.071770	 2.358839	 33.019530	 0.103676	-29.418790	 8.678217	 1.171317	 0.584669	 3.612674	 2.078057	-6.212668	-3.251779	-2.812433	-93.946120	 59.007230	 175.366200	 7.427370	 23.522620	-41.094060	 15.886060	-2.479913	-7.820312	-16.492450	-5.493255	-9.555545	-4.869030	 19.248960	-2.786532	-3.883667	 21.445450	 2.204924	-4.808272	 5.545353	 0.146974	-0.073042	-5.078513	 0.185613	-8.121112	 1.911630	 2.198403	 89.776490	 61.652630	 179.986600	-18.126560	 48.022640	 10.787390	-19.050020	-2.546913	 7.860150	 12.569980	 6.576078	-1.475663	 6.293110	 24.778010	-0.538013	 1.898538	 44.595020	-7.004735	 0.549873	 24.172560	 3.556325
-0.062688	-2.335227	 1.160610	 5.568870	-0.894686	-3.537450	 28.512960	-9.665272	 179.821000	 1.292570	-47.032500	 0.687756	 146.325100	 82.977530	-149.889100	-2.368782	 31.717670	-0.072250	-40.048630	-40.210430	 175.259800	 10.167530	-44.266640	 7.673539	-18.263900	 70.514420	 28.491890	 2.358984	 32.998660	 0.103193	-32.914330	 8.395029	 1.053894	 0.603223	 3.849302	 2.271663	-6.746205	-3.449640	-3.034677	-94.068790	 59.018180	 175.103000	 6.213885	 21.483660	-41.606880	 17.743830	-3.083913	-8.628395	-16.092750	-5.618423	-10.102740	-4.865472	 19.345560	-2.793983	-3.876860	 21.532510	 2.198007	-4.805554	 5.577466	 0.145099	-0.046983	-5.099117	 0.219812	-8.546843	 1.851949	 2.083187	 89.730450	 61.708420	 179.876600	-18.052850	 48.782010	 9.341632	-21.490420	-3.158263	 8.666937	 12.420950	 6.801598	-1.727304	 6.281129	 23.894170	-0.546810	 2.002803	 43.734510	-7.097393	 0.730561	 23.372820	 3.466043
-0.065173	-2.373706	 1.156001	 6.053799	-0.461747	-3.597742	 27.603550	-8.127214	 178.881900	 1.496811	-46.366150	 0.828116	 158.079400	 82.603760	-161.477800	-2.367940	 31.855330	-0.075386	-41.831890	-40.885320	 172.543700	 9.945471	-38.814990	 6.756622	-24.318640	 70.531850	 34.190260	 2.359064	 32.985760	 0.102890	-35.769390	 8.101191	 0.935092	 0.600025	 3.954246	 2.456985	-7.244854	-3.581676	-3.240031	-94.190940	 59.020530	 174.842100	 5.216295	 19.813720	-41.967660	 19.485990	-3.695138	-9.343227	-15.700700	-5.761954	-10.589620	-4.861580	 19.450890	-2.802167	-3.869873	 21.621630	 2.190909	-4.802558	 5.612704	 0.143035	-0.022072	-5.117267	 0.255467	-8.945017	 1.795556	 1.975737	 89.684010	 61.764770	 179.765200	-17.909920	 49.427320	 7.957657	-23.765190	-3.775408	 9.378134	 12.246300	 7.020620	-1.978091	 6.268622	 23.009800	-0.559311	 2.102446	 42.884780	-7.185497	 0.912308	 22.557050	 3.377347
-0.067744	-2.412211	 1.150245	 6.286399	-0.044269	-3.825393	 26.982600	-6.301813	 178.053200	 1.619727	-45.458340	 0.903120	 169.261200	 81.810910	-172.479700	-2.366550	 32.080520	-0.080509	-42.723820	-42.209670	 170.210900	 10.035330	-34.806550	 6.210365	-27.330040	 69.543150	 36.803380	 2.360424	 32.784340	 0.098217	-37.923500	 7.745560	 1.003021	 0.606176	 4.182129	 2.593940	-7.698288	-3.717512	-3.432050	-94.295750	 58.977350	 174.624900	 4.307484	 18.429410	-42.362790	 20.820550	-4.324530	-9.996652	-15.724950	-6.286625	-10.431220	-4.852655	 19.659430	-2.811936	-3.858866	 21.761650	 2.179728	-4.795670	 5.693807	 0.138282	-0.012152	-5.155885	 0.290058	-9.349113	 1.736032	 1.927738	 89.610060	 61.855630	 179.586800	-17.616550	 49.983750	 6.604667	-26.253270	-4.415778	 10.027120	 11.923590	 7.197950	-2.584646	 6.250652	 21.955250	-0.595540	 2.194477	 42.075150	-7.266470	 1.145183	 21.495240	 3.266862
-0.070697	-2.448798	 1.143071	 6.503275	 0.348803	-4.051441	 26.381260	-4.544179	 177.248300	 1.734154	-44.627910	 0.970556	 178.247500	 80.826300	 178.689100	-2.364865	 32.346650	-0.086600	-43.632250	-44.482280	 167.831000	 10.330070	-33.033740	 6.097908	-31.263100	 70.017740	 40.260480	 2.361054	 32.689030	 0.096019	-39.490490	 7.396602	 1.076833	 0.616667	 4.386885	 2.726448	-8.117612	-3.832327	-3.611068	-94.394940	 58.934150	 174.420300	 3.539636	 17.336920	-42.727680	 22.054350	-4.957844	-10.585060	-15.772360	-6.776199	-10.253310	-4.843372	 19.870280	-2.820797	-3.847352	 21.907580	 2.168032	-4.788235	 5.781243	 0.133143	-0.001655	-5.196137	 0.322290	-9.721906	 1.676516	 1.877394	 89.537990	 61.942990	 179.411700	-17.249820	 50.406280	 5.320529	-28.638590	-5.057411	 10.606580	 11.601100	 7.351236	-3.217740	 6.231700	 20.886010	-0.633333	 2.291821	 41.191980	-7.351680	 1.377810	 20.416320	 3.160162
-0.073837	-2.485649	 1.135604	 6.576624	 0.542585	-4.250220	 25.882960	-2.479956	 176.350900	 1.781232	-43.511010	 0.983631	-173.897700	 80.173610	 171.059200	-2.360983	 32.938810	-0.100248	-43.580000	-46.783900	 166.187200	 10.337550	-32.463070	 6.009015	-40.437450	 73.488500	 48.589540	 2.355764	 33.463170	 0.114024	-40.483990	 7.117154	 1.179042	 0.624419	 4.699988	 2.772236	-8.462398	-3.935934	-3.730155	-94.448640	 58.892020	 174.312900	 2.761208	 16.582720	-43.029200	 23.255010	-5.583473	-11.107370	-15.956390	-6.990050	-10.004900	-4.832047	 20.093410	-2.821993	-3.832238	 22.098290	 2.152675	-4.776670	 5.917087	 0.125134	 0.014193	-5.248582	 0.335395	-10.033270	 1.605368	 1.802604	 89.479390	 61.999070	 179.268900	-16.706040	 50.716670	 4.058209	-31.013130	-5.693468	 11.122450	 11.340750	 7.299075	-4.042970	 6.209048	 19.707830	-0.681821	 2.448273	 39.711840	-7.487590	 1.632047	 19.216550	 3.047839
